<svg width="128" height="128" viewBox="0 0 128 128" fill="none" xmlns="http://www.w3.org/2000/svg">
<path d="M11.398 121.43V103.692H16.445C17.9783 103.692 19.1947 104.067 20.094 104.818C20.9927 105.568 21.442 106.545 21.442 107.749C21.442 108.756 21.17 109.63 20.626 110.372C20.0813 111.114 19.3307 111.642 18.374 111.955V112.005C19.57 112.145 20.5267 112.598 21.244 113.365C21.9613 114.124 22.32 115.113 22.32 116.334C22.32 117.851 21.776 119.08 20.688 120.02C19.5993 120.96 18.226 121.43 16.568 121.43H11.398ZM13.476 105.572V111.299H15.604C16.742 111.299 17.6367 111.027 18.288 110.483C18.9393 109.93 19.265 109.154 19.265 108.157C19.265 106.434 18.131 105.572 15.863 105.572H13.476ZM13.476 113.167V119.55H16.296C17.5167 119.55 18.461 119.261 19.129 118.684C19.805 118.107 20.143 117.315 20.143 116.309C20.143 114.214 18.7163 113.167 15.863 113.167H13.476ZM30.942 121.73C29.07 121.73 27.5733 121.14 26.452 119.961C25.3387 118.774 24.782 117.203 24.782 115.248C24.782 113.121 25.3633 111.459 26.526 110.263C27.6887 109.068 29.2597 108.47 31.239 108.47C33.127 108.47 34.599 109.051 35.655 110.214C36.7183 111.377 37.25 112.989 37.25 115.05C37.25 117.071 36.677 118.691 35.531 119.912C34.393 121.124 32.8633 121.73 30.942 121.73ZM31.09 110.177C29.7873 110.177 28.7567 110.622 27.998 111.513C27.2393 112.395 26.86 113.615 26.86 115.174C26.86 116.675 27.2433 117.859 28.01 118.724C28.7767 119.591 29.8033 120.024 31.09 120.024C32.4013 120.024 33.4077 119.599 34.109 118.749C34.8177 117.9 35.172 116.692 35.172 115.125C35.172 113.542 34.8177 112.321 34.109 111.463C33.4077 110.606 32.4013 110.177 31.09 110.177ZM45.786 121.73C43.914 121.73 42.4173 121.14 41.296 119.961C40.1827 118.774 39.626 117.203 39.626 115.248C39.626 113.121 40.2073 111.459 41.37 110.263C42.5327 109.068 44.1037 108.47 46.083 108.47C47.971 108.47 49.443 109.051 50.499 110.214C51.563 111.377 52.095 112.989 52.095 115.05C52.095 117.071 51.5217 118.691 50.375 119.912C49.237 121.124 47.7073 121.73 45.786 121.73ZM45.934 110.177C44.6313 110.177 43.6007 110.622 42.842 111.513C42.0833 112.395 41.704 113.615 41.704 115.174C41.704 116.675 42.0873 117.859 42.854 118.724C43.6207 119.591 44.6473 120.024 45.934 120.024C47.2453 120.024 48.2517 119.599 48.953 118.749C49.6617 117.9 50.016 116.692 50.016 115.125C50.016 113.542 49.6617 112.321 48.953 111.463C48.2517 110.606 47.2453 110.177 45.934 110.177ZM61.211 121.31C60.733 121.574 60.102 121.706 59.318 121.706C57.1 121.706 55.991 120.469 55.991 117.995V110.499H53.814V108.767H55.991V105.675L58.02 105.019V108.767H61.211V110.499H58.02V117.636C58.02 118.485 58.1643 119.092 58.453 119.455C58.741 119.818 59.219 119.999 59.887 119.999C60.3983 119.999 60.8396 119.859 61.211 119.579V121.31ZM63.153 120.97V118.793C64.2577 119.609 65.474 120.017 66.802 120.017C68.5833 120.017 69.474 119.424 69.474 118.237C69.474 117.898 69.3956 117.614 69.239 117.383C69.0903 117.144 68.884 116.933 68.62 116.752C68.3647 116.571 68.0597 116.41 67.705 116.27C67.3583 116.121 66.983 115.969 66.579 115.812C66.019 115.589 65.5243 115.367 65.095 115.144C64.675 114.913 64.3203 114.658 64.031 114.377C63.751 114.088 63.5367 113.763 63.388 113.4C63.248 113.037 63.178 112.613 63.178 112.126C63.178 111.533 63.314 111.009 63.586 110.555C63.858 110.093 64.2207 109.71 64.674 109.405C65.1273 109.092 65.643 108.856 66.221 108.699C66.8063 108.542 67.4083 108.464 68.027 108.464C69.1237 108.464 70.105 108.654 70.971 109.034V111.087C70.039 110.476 68.9666 110.171 67.754 110.171C67.3746 110.171 67.0326 110.216 66.728 110.307C66.4226 110.39 66.1586 110.51 65.936 110.667C65.7213 110.823 65.5523 111.012 65.429 111.235C65.3137 111.45 65.256 111.689 65.256 111.953C65.256 112.282 65.3137 112.558 65.429 112.781C65.5523 113.004 65.7296 113.202 65.961 113.375C66.1916 113.548 66.472 113.705 66.802 113.845C67.132 113.985 67.5073 114.138 67.928 114.303C68.488 114.517 68.991 114.74 69.437 114.971C69.8823 115.194 70.2616 115.449 70.575 115.738C70.8883 116.018 71.1273 116.344 71.292 116.715C71.4653 117.086 71.552 117.527 71.552 118.038C71.552 118.665 71.412 119.209 71.132 119.671C70.8593 120.133 70.492 120.516 70.03 120.821C69.5687 121.126 69.037 121.353 68.435 121.502C67.833 121.651 67.202 121.725 66.542 121.725C65.2393 121.725 64.1103 121.473 63.153 120.97ZM80.544 121.31C80.066 121.574 79.435 121.706 78.651 121.706C76.433 121.706 75.324 120.469 75.324 117.995V110.499H73.147V108.767H75.324V105.675L77.353 105.019V108.767H80.544V110.499H77.353V117.636C77.353 118.485 77.4973 119.092 77.786 119.455C78.074 119.818 78.552 119.999 79.22 119.999C79.7313 119.999 80.1727 119.859 80.544 119.579V121.31ZM89.859 110.82C89.5043 110.548 88.993 110.412 88.325 110.412C87.459 110.412 86.7333 110.82 86.148 111.636C85.5707 112.453 85.282 113.566 85.282 114.976V121.433H83.254V108.767H85.282V111.377H85.332C85.6207 110.486 86.0617 109.794 86.655 109.299C87.2483 108.796 87.9123 108.544 88.647 108.544C89.1743 108.544 89.5783 108.602 89.859 108.718V110.82ZM101.13 121.43H99.101V119.45H99.051C98.169 120.968 96.8706 121.727 95.156 121.727C93.894 121.727 92.904 121.393 92.186 120.725C91.4773 120.057 91.123 119.17 91.123 118.065C91.123 115.698 92.5163 114.322 95.303 113.935L99.101 113.402C99.101 111.25 98.231 110.174 96.491 110.174C94.9656 110.174 93.5887 110.693 92.36 111.732V109.654C93.6053 108.863 95.0403 108.467 96.665 108.467C99.6417 108.467 101.13 110.042 101.13 113.192V121.43ZM99.101 115.023L96.046 115.443C95.106 115.575 94.3967 115.81 93.918 116.148C93.44 116.478 93.201 117.068 93.201 117.917C93.201 118.536 93.4197 119.043 93.857 119.439C94.3023 119.826 94.892 120.019 95.626 120.019C96.632 120.019 97.4607 119.669 98.112 118.969C98.772 118.26 99.102 117.365 99.102 116.284L99.101 115.023ZM107.03 119.6H106.98V127.257H104.952V108.764H106.981V110.99H107.03C108.028 109.308 109.488 108.467 111.409 108.467C113.042 108.467 114.316 109.036 115.231 110.174C116.146 111.303 116.604 112.821 116.604 114.726C116.604 116.845 116.089 118.544 115.058 119.822C114.027 121.092 112.617 121.727 110.828 121.727C109.187 121.727 107.921 121.019 107.03 119.6ZM106.98 114.491V116.261C106.98 117.308 107.318 118.198 107.995 118.932C108.68 119.658 109.545 120.021 110.592 120.021C111.821 120.021 112.782 119.551 113.475 118.611C114.175 117.671 114.525 116.364 114.525 114.689C114.525 113.279 114.2 112.174 113.549 111.374C112.898 110.574 112.015 110.174 110.902 110.174C109.722 110.174 108.774 110.586 108.057 111.411C107.339 112.228 106.98 113.254 106.98 114.491ZM27.235 2.05103C20.058 2.05103 14.749 8.33502 14.986 15.15C15.214 21.696 14.918 30.176 12.783 37.09C10.643 44.026 7.02299 48.409 1.10999 48.973V55.36C7.02299 55.923 10.643 60.307 12.783 67.243C14.918 74.157 15.213 82.637 14.986 89.183C14.748 95.998 20.058 102.281 27.235 102.281H100.775C107.952 102.281 113.261 95.997 113.024 89.183C112.796 82.637 113.092 74.157 115.226 67.243C117.366 60.308 120.977 55.924 126.89 55.36V48.973C120.977 48.41 117.367 44.026 115.226 37.09C113.092 30.176 112.796 21.696 113.024 15.15C113.261 8.33502 107.952 2.05103 100.774 2.05103H27.235ZM85.349 63.737C85.349 73.121 78.347 78.81 66.728 78.81H45.306C45.1758 78.81 45.0509 78.7583 44.9588 78.6662C44.8667 78.5741 44.815 78.4492 44.815 78.319V25.993C44.8149 25.9285 44.8275 25.8645 44.8521 25.8048C44.8767 25.7451 44.9128 25.6909 44.9584 25.6452C45.004 25.5995 45.0582 25.5632 45.1179 25.5385C45.1775 25.5138 45.2414 25.501 45.306 25.501H66.615C76.304 25.501 82.662 30.747 82.662 38.801C82.662 44.454 78.385 49.514 72.935 50.401V50.697C80.353 51.51 85.349 56.645 85.349 63.737ZM64.571 32.262H53.293V48.184H62.793C70.135 48.184 74.184 45.229 74.184 39.946C74.184 34.996 70.703 32.262 64.571 32.262ZM53.293 54.502V72.05H64.988C72.633 72.05 76.683 68.984 76.683 63.22C76.683 57.457 72.52 54.502 64.496 54.502H53.293Z" fill="black"/>
</svg>
