<svg width="118" height="94" viewBox="0 0 118 94" fill="none" xmlns="http://www.w3.org/2000/svg">
<path d="M78.5437 17.625C78.2504 17.625 77.969 17.7178 77.7615 17.8831C77.5541 18.0484 77.4375 18.2725 77.4375 18.5063V34.6537L72.8429 32.5181C72.5592 32.3845 72.2358 32.314 71.9062 32.314C71.5767 32.314 71.2533 32.3845 70.9696 32.5181L59.9293 37.647C59.647 37.7768 59.4125 37.9635 59.2494 38.1883C59.0863 38.4131 59.0003 38.6681 59 38.9277V49.1972C59 49.726 59.354 50.2136 59.9293 50.478L70.9696 55.6069C71.2533 55.7405 71.5767 55.811 71.9062 55.811C72.2358 55.811 72.5592 55.7405 72.8429 55.6069L83.8832 50.478C84.1655 50.3482 84.4 50.1615 84.5631 49.9367C84.7262 49.7119 84.8122 49.4569 84.8125 49.1972V21.2381C84.8116 20.9819 84.7267 20.7304 84.5663 20.5083C84.406 20.2863 84.1756 20.1014 83.898 19.9721L79.0932 17.7454C78.9278 17.6676 78.7395 17.6261 78.5474 17.625H78.5437ZM42.4062 32.3184C42.0774 32.318 41.7543 32.387 41.4696 32.5181L30.4292 37.647C30.147 37.7768 29.9125 37.9635 29.7494 38.1883C29.5863 38.4131 29.5003 38.6681 29.5 38.9277V49.1972C29.5 49.726 29.854 50.2136 30.4292 50.478L41.4696 55.6069C42.0486 55.8713 42.7602 55.8713 43.3429 55.6069L54.3833 50.478C54.6655 50.3482 54.9 50.1615 55.0631 49.9367C55.2262 49.7119 55.3122 49.4569 55.3125 49.1972V38.9277C55.3129 38.668 55.2272 38.4127 55.0641 38.1878C54.9009 37.9629 54.666 37.7764 54.3833 37.647L43.3429 32.5181C43.0582 32.387 42.7351 32.318 42.4062 32.3184ZM101.406 32.3184C101.077 32.3171 100.754 32.386 100.47 32.5181L89.4293 37.647C89.147 37.7768 88.9125 37.9635 88.7494 38.1883C88.5863 38.4131 88.5003 38.6681 88.5 38.9277V49.1972C88.5 49.726 88.854 50.2136 89.4293 50.478L100.138 55.6333C100.421 55.7701 100.745 55.8435 101.076 55.8455C101.407 55.8476 101.733 55.7783 102.018 55.6451L107.284 53.2069C107.408 53.1488 107.511 53.0659 107.582 52.9665C107.653 52.8671 107.691 52.7545 107.691 52.64C107.691 52.5255 107.653 52.4129 107.582 52.3135C107.511 52.2141 107.408 52.1312 107.284 52.0731L95.875 46.718V41.4481L101.406 38.8837L106.938 41.4481V45.12C106.938 45.6106 107.454 45.6869 107.8 45.5224C109.664 44.6554 111.53 43.7908 113.398 42.9286C113.676 42.7995 113.906 42.6147 114.067 42.3926C114.227 42.1705 114.312 41.9188 114.312 41.6626V38.9307C114.313 38.6709 114.227 38.4157 114.064 38.1908C113.901 37.9659 113.666 37.7793 113.383 37.6499L102.343 32.5211C102.058 32.3894 101.735 32.3204 101.406 32.3213V32.3184ZM12.9062 32.3242C12.5772 32.3229 12.2538 32.3919 11.9696 32.524L0.92925 37.647C0.646651 37.778 0.412122 37.9658 0.249067 38.1915C0.0860115 38.4173 0.000132498 38.6732 0 38.9336V52.0437C0 52.6841 0.87025 53.0806 1.5635 52.7604L6.4605 50.4897C6.73862 50.3601 6.96934 50.1748 7.12976 49.9522C7.29018 49.7296 7.37473 49.4774 7.375 49.2208V41.4569L12.9062 38.8866L18.4375 41.4569V49.2208C18.438 49.477 18.5227 49.7287 18.6832 49.9508C18.8436 50.1729 19.0742 50.3577 19.352 50.4868L24.249 52.7604C24.4071 52.8338 24.5868 52.8727 24.7698 52.8731C24.9528 52.8735 25.1327 52.8354 25.2913 52.7627C25.4499 52.69 25.5816 52.5852 25.6732 52.459C25.7647 52.3327 25.8127 52.1895 25.8125 52.0437V38.9336C25.8124 38.6732 25.7265 38.4173 25.5634 38.1915C25.4004 37.9658 25.1658 37.778 24.8833 37.647L13.8429 32.524C13.5587 32.3919 13.2353 32.3229 12.9062 32.3242ZM71.9062 38.8808L77.4375 41.4511V46.6739L71.9062 49.2442L66.375 46.6739V41.4481L71.9062 38.8778V38.8808ZM101.406 41.1367L98.2461 42.6055V45.5371L101.406 47L104.566 45.5371V42.6055L101.406 41.1367ZM56.8096 52.8691C56.4266 52.8674 56.0494 52.9443 55.7144 53.0924L45.3452 57.8688C45.0115 58.0194 44.7342 58.2382 44.5417 58.5025C44.3492 58.7668 44.2485 59.0672 44.25 59.3727V68.9079C44.25 69.5218 44.6814 70.1005 45.3452 70.4119L48.0739 71.6515C49.383 72.1656 49.8661 72.1656 50.4598 72.1656C52.4141 72.1656 53.5277 71.2344 53.5277 69.5894V60.1688C53.5287 60.1367 53.5216 60.1047 53.5069 60.0748C53.4921 60.0449 53.47 60.0177 53.4418 59.9947C53.4137 59.9717 53.38 59.9534 53.3428 59.9409C53.3056 59.9285 53.2657 59.9221 53.2254 59.9221H51.9126C51.8305 59.9221 51.7517 59.9481 51.6936 59.9943C51.6355 60.0406 51.6029 60.1034 51.6029 60.1688V69.5894C51.6029 70.3032 50.6552 71.0376 49.1101 70.4236L46.2708 69.1194C46.2244 69.0961 46.1861 69.0641 46.159 69.0262C46.132 68.9883 46.1172 68.9456 46.1159 68.902V59.3669C46.1159 59.2817 46.1675 59.1818 46.2744 59.1377L56.6437 54.3761C56.6934 54.3542 56.7492 54.3427 56.8059 54.3427C56.8627 54.3427 56.9185 54.3542 56.9682 54.3761L67.3485 59.1348C67.4554 59.1818 67.5071 59.267 67.5071 59.3669V68.902C67.5068 68.9477 67.4922 68.9926 67.4645 69.0327C67.4367 69.0727 67.3969 69.1066 67.3485 69.1311L56.9682 73.9104C56.9185 73.9323 56.8627 73.9438 56.8059 73.9438C56.7492 73.9438 56.6934 73.9323 56.6437 73.9104L53.9961 72.6532C53.9223 72.6238 53.8117 72.6091 53.7416 72.6385C53.2564 72.8863 52.7301 73.0791 52.1781 73.2113C51.9974 73.2554 51.7541 73.3435 52.274 73.5726L55.7144 75.2029C56.0509 75.3488 56.4267 75.4274 56.8096 75.4321C57.1912 75.4351 57.5659 75.3516 57.8901 75.1912L68.263 70.4119C68.5967 70.2612 68.874 70.0424 69.0665 69.7781C69.259 69.5138 69.3596 69.2134 69.3582 68.9079V59.3727C69.3534 59.0682 69.25 58.7698 69.0582 58.5063C68.8663 58.2429 68.5925 58.0233 68.263 57.8688L57.8901 53.0953C57.5608 52.9465 57.1881 52.8695 56.8096 52.8721V52.8691ZM72.9867 57.2695C72.7252 57.2699 72.4664 57.3113 72.225 57.3914C71.9835 57.4714 71.7643 57.5886 71.5797 57.7362C71.207 58.0342 70.9981 58.438 70.9991 58.8587C71.0001 59.2794 71.2108 59.6825 71.585 59.9795C71.9591 60.2764 72.466 60.4428 72.9941 60.442C73.5222 60.4412 74.0283 60.2734 74.401 59.9753C74.7737 59.6773 74.9826 59.2735 74.9816 58.8528C74.9806 58.4321 74.7699 58.029 74.3958 57.732C74.0217 57.4351 73.5148 57.2687 72.9867 57.2695ZM72.9646 57.5221C73.9012 57.5221 74.6608 58.1096 74.6608 58.8528C74.6541 59.2095 74.4733 59.5502 74.1566 59.8024C73.84 60.0547 73.4124 60.1988 72.9646 60.2041C72.5192 60.2002 72.094 60.0557 71.7822 59.8024C71.4705 59.5491 71.2976 59.2076 71.3015 58.8528C71.3 58.6782 71.342 58.5052 71.425 58.3436C71.5079 58.182 71.6303 58.0351 71.7849 57.9114C71.9395 57.7876 72.1234 57.6895 72.3258 57.6227C72.5283 57.5559 72.7454 57.5217 72.9646 57.5221ZM72.2381 57.9539V59.737H72.6622V59.0261H73.0604C73.2227 59.0261 73.2596 59.079 73.2964 59.1789C73.2964 59.1936 73.3628 59.6577 73.3812 59.7429H73.8422C73.7837 59.5881 73.7478 59.4284 73.7353 59.267C73.6836 59.0379 73.6689 58.8792 73.3628 58.8646C73.5251 58.8205 73.7942 58.7529 73.7942 58.4239C73.7942 57.951 73.278 57.9539 73.0088 57.9539H72.2381ZM72.6622 58.2389H73.0236C73.1342 58.2389 73.3481 58.2389 73.3481 58.4798C73.3481 58.5796 73.2928 58.7441 73.0014 58.7383H72.6622V58.2389ZM59.59 59.6959C56.6289 59.6959 54.87 60.7034 54.87 62.3602C54.87 64.1756 56.6326 64.6603 59.4683 64.8864C62.8608 65.1596 63.1263 65.5474 63.1263 66.0761C63.1263 67.0044 62.1897 67.3892 59.9993 67.3892C57.2521 67.3892 56.6511 66.8487 56.4519 65.7618C56.4335 65.6443 56.3044 65.5591 56.1422 65.5591H54.7926C54.7522 65.5591 54.7123 65.5655 54.6751 65.578C54.6379 65.5905 54.6043 65.6087 54.5761 65.6317C54.5479 65.6547 54.5258 65.682 54.5111 65.7119C54.4963 65.7418 54.4892 65.7738 54.4902 65.8059C54.4902 67.1924 55.4416 68.8521 59.9809 68.8521C63.3107 68.8521 65.195 67.8239 65.195 66.0203C65.195 64.2343 63.6831 63.7584 60.4897 63.4147C57.2595 63.0711 56.9387 62.8978 56.9387 62.2956C56.9387 61.7962 57.2042 61.1411 59.5937 61.1411C61.7251 61.1411 62.5216 61.5142 62.8461 62.6569C62.8829 62.7744 62.9825 62.8419 63.1263 62.8419H64.4722C64.5607 62.8419 64.6382 62.8126 64.6898 62.7714C64.7451 62.7156 64.7783 62.6598 64.7636 62.5893C64.5497 60.6153 62.9124 59.6959 59.59 59.6959Z" fill="black"/>
</svg>
