<svg width="63" height="77" viewBox="0 0 63 77" fill="none" xmlns="http://www.w3.org/2000/svg">
<path d="M4.22727 46V11.0909H8.45455V42.25H24.6818V46H4.22727Z" fill="black"/>
<path d="M4.22727 46H0.227273V50H4.22727V46ZM4.22727 11.0909V7.09091H0.227273V11.0909H4.22727ZM8.45455 11.0909H12.4545V7.09091H8.45455V11.0909ZM8.45455 42.25H4.45455V46.25H8.45455V42.25ZM24.6818 42.25H28.6818V38.25H24.6818V42.25ZM24.6818 46V50H28.6818V46H24.6818ZM8.22727 46V11.0909H0.227273V46H8.22727ZM4.22727 15.0909H8.45455V7.09091H4.22727V15.0909ZM4.45455 11.0909V42.25H12.4545V11.0909H4.45455ZM8.45455 46.25H24.6818V38.25H8.45455V46.25ZM20.6818 42.25V46H28.6818V42.25H20.6818ZM24.6818 42H4.22727V50H24.6818V42Z" fill="black"/>
<path d="M30.5227 38.9091H34.7273L44.6136 63.0568H44.9545L54.8409 38.9091H59.0455V68H55.75V45.8977H55.4659L46.375 68H43.1932L34.1023 45.8977H33.8182V68H30.5227V38.9091Z" fill="black"/>
<path d="M30.5227 38.9091V36.9091H28.5227V38.9091H30.5227ZM34.7273 38.9091L36.5782 38.1513L36.0696 36.9091H34.7273V38.9091ZM44.6136 63.0568L42.7628 63.8146L43.2713 65.0568H44.6136V63.0568ZM44.9545 63.0568V65.0568H46.2969L46.8054 63.8146L44.9545 63.0568ZM54.8409 38.9091V36.9091H53.4986L52.99 38.1513L54.8409 38.9091ZM59.0455 38.9091H61.0455V36.9091H59.0455V38.9091ZM59.0455 68V70H61.0455V68H59.0455ZM55.75 68H53.75V70H55.75V68ZM55.75 45.8977H57.75V43.8977H55.75V45.8977ZM55.4659 45.8977V43.8977H54.126L53.6163 45.1369L55.4659 45.8977ZM46.375 68V70H47.7149L48.2247 68.7608L46.375 68ZM43.1932 68L41.3435 68.7608L41.8532 70H43.1932V68ZM34.1023 45.8977L35.9519 45.1369L35.4422 43.8977H34.1023V45.8977ZM33.8182 45.8977V43.8977H31.8182V45.8977H33.8182ZM33.8182 68V70H35.8182V68H33.8182ZM30.5227 68H28.5227V70H30.5227V68ZM30.5227 40.9091H34.7273V36.9091H30.5227V40.9091ZM32.8764 39.6669L42.7628 63.8146L46.4645 62.299L36.5782 38.1513L32.8764 39.6669ZM44.6136 65.0568H44.9545V61.0568H44.6136V65.0568ZM46.8054 63.8146L56.6918 39.6669L52.99 38.1513L43.1037 62.299L46.8054 63.8146ZM54.8409 40.9091H59.0455V36.9091H54.8409V40.9091ZM57.0455 38.9091V68H61.0455V38.9091H57.0455ZM59.0455 66H55.75V70H59.0455V66ZM57.75 68V45.8977H53.75V68H57.75ZM55.75 43.8977H55.4659V47.8977H55.75V43.8977ZM53.6163 45.1369L44.5253 67.2392L48.2247 68.7608L57.3156 46.6585L53.6163 45.1369ZM46.375 66H43.1932V70H46.375V66ZM45.0428 67.2392L35.9519 45.1369L32.2526 46.6585L41.3435 68.7608L45.0428 67.2392ZM34.1023 43.8977H33.8182V47.8977H34.1023V43.8977ZM31.8182 45.8977V68H35.8182V45.8977H31.8182ZM33.8182 66H30.5227V70H33.8182V66ZM32.5227 68V38.9091H28.5227V68H32.5227Z" fill="black"/>
</svg>
